# xmcd CD database file
#
# Track frame offsets:
#	150
#	12894
#	26637
#	36665
#	48256
#	60256
#	73868
#	92269
#	103494
#	115406
#	123753
#	134150
#	143013
#	151644
#	162132
#	173030
#	185682
#	197113
#	209298
#	221941
#	231188
#	243501
#	254947
#	264064
#	276038
#
# Disc length: 3787 seconds
#
# Revision: 1
# Processed by: cddbd v1.5.2PL0 Copyright (c) Steve Scherf et al.
# Submitted via: CDex 1.51
#
DISCID=720ec919
DTITLE=Johnny Cash - The Rebel CD2
DYEAR=2013
DGENRE=Country
TTITLE0=Ring of fire (live)
TTITLE1=Don't take your guns to town
TTITLE2=Ballad of a teenage queen
TTITLE3=Cottonfields
TTITLE4=I'm so lonesomeI could cry
TTITLE5=Tennessee flat top box
TTITLE6=The big battle
TTITLE7=Cry! Cry! Cry!
TTITLE8=Thanks a lot
TTITLE9=You dreamer you
TTITLE10=Frankie's man, Johnny
TTITLE11=Katy too
TTITLE12=I forgot to remember to forget
TTITLE13=There you go
TTITLE14=Train of love
TTITLE15=Next in line
TTITLE16=Don't make me go
TTITLE17=Home of the blues
TTITLE18=Give my love to Rose
TTITLE19=One more ride
TTITLE20=That's enough
TTITLE21=I'd rather die young
TTITLE22=Pickin' time
TTITLE23=So goggone lonesome
TTITLE24=Five feet and rising
EXTD=YEAR: 2013
EXTT0=
EXTT1=
EXTT2=
EXTT3=
EXTT4=
EXTT5=
EXTT6=
EXTT7=
EXTT8=
EXTT9=
EXTT10=
EXTT11=
EXTT12=
EXTT13=
EXTT14=
EXTT15=
EXTT16=
EXTT17=
EXTT18=
EXTT19=
EXTT20=
EXTT21=
EXTT22=
EXTT23=
EXTT24=
PLAYORDER=
